<svg xmlns="http://www.w3.org/2000/svg" width="900" height="360" viewBox="0 0 900 360" role="img" aria-label="Project architecture call graph">
  <defs>
    <marker id="arrow" markerWidth="10" markerHeight="10" refX="10" refY="5" orient="auto">
      <path d="M0,0 L10,5 L0,10 z" fill="#333" />
    </marker>
    <style>
      .box { fill:#f8f9fb; stroke:#2b2f33; stroke-width:1.2; rx:8; ry:8; }
      .lbl { font: 12px/1.1 "Inter", Arial, sans-serif; fill:#222; }
      .title { font-weight:700; font-size:13px; }
      .sub { font-size:11px; fill:#555; }
      .arrow { stroke:#333; stroke-width:1.4; fill:none; marker-end:url(#arrow); }
    </style>
  </defs>

  <!-- Row 1 -->
  <rect class="box" x="30"  y="20"  width="160" height="44" />
  <text class="lbl title" x="110" y="48" text-anchor="middle">data_scraper</text>

  <rect class="box" x="220" y="20" width="140" height="44" />
  <text class="lbl title" x="290" y="48" text-anchor="middle">data/</text>

  <rect class="box" x="390" y="20" width="200" height="44" />
  <text class="lbl title" x="490" y="48" text-anchor="middle">Kompetensbryggan/loaders.py</text>

  <rect class="box" x="610" y="20" width="200" height="44" />
  <text class="lbl title" x="710" y="48" text-anchor="middle">Kompetensbryggan/engine.py</text>

  <rect class="box" x="830" y="20" width="60" height="44" />
  <text class="lbl title" x="860" y="48" text-anchor="middle">Static</text>

  <!-- Row 2 -->
  <rect class="box" x="390" y="110" width="200" height="44" />
  <text class="lbl title" x="490" y="138" text-anchor="middle">Kompetensbryggan/visualizer.py</text>

  <rect class="box" x="610" y="110" width="200" height="44" />
  <text class="lbl title" x="710" y="138" text-anchor="middle">Kompetensbryggan/bryggan.py</text>

  <rect class="box" x="610" y="200" width="170" height="44" />
  <text class="lbl title" x="695" y="228" text-anchor="middle">Kompetensbryggan/styles.py</text>

  <rect class="box" x="220" y="110" width="140" height="44" />
  <text class="lbl title" x="290" y="138" text-anchor="middle">scripts/</text>

  <rect class="box" x="830" y="110" width="60" height="44" />
  <text class="lbl title" x="860" y="138" text-anchor="middle">docs/</text>

  <!-- Arrows -->
  <line class="arrow" x1="190" y1="42" x2="220" y2="42" />
  <line class="arrow" x1="360" y1="42" x2="390" y2="42" />
  <line class="arrow" x1="590" y1="42" x2="610" y2="42" />
  <line class="arrow" x1="810" y1="42" x2="830" y2="42" />

  <line class="arrow" x1="500" y1="64" x2="500" y2="110" />
  <line class="arrow" x1="590" y1="132" x2="610" y2="132" />
  <line class="arrow" x1="590" y1="132" x2="500" y2="132" />

  <line class="arrow" x1="710" y1="64" x2="880" y2="64" />
  <line class="arrow" x1="360" y1="132" x2="390" y2="132" />
  <line class="arrow" x1="290" y1="132" x2="360" y2="132" />
  <line class="arrow" x1="910" y1="132" x2="860" y2="132" marker-end="none" stroke="#0000" />

  <line class="arrow" x1="830" y1="42" x2="830" y2="132" />
  <line class="arrow" x1="860" y1="132" x2="760" y2="132" />
  <line class="arrow" x1="760" y1="132" x2="760" y2="152" />

  <!-- Labels -->
  <text class="lbl sub" x="110" y="62" text-anchor="middle">downloads datasets</text>
  <text class="lbl sub" x="290" y="62" text-anchor="middle">stores raw/processed</text>
  <text class="lbl sub" x="490" y="62" text-anchor="middle">normalizes taxonomies</text>
  <text class="lbl sub" x="710" y="62" text-anchor="middle">matching & logic</text>

  <text class="lbl sub" x="490" y="160" text-anchor="middle">visual outputs</text>
  <text class="lbl sub" x="710" y="160" text-anchor="middle">Streamlit app</text>
  <text class="lbl sub" x="695" y="256" text-anchor="middle">injects CSS</text>
  <text class="lbl sub" x="290" y="160" text-anchor="middle">utility scripts</text>
  <text class="lbl sub" x="860" y="160" text-anchor="middle">docs & design notes</text>
</svg>